<?xml version="1.0" encoding="UTF-8" standalone="no"?>
<!-- Created with Inkscape (http://www.inkscape.org/) -->

<svg
   width="24"
   height="24"
   viewBox="0 0 6.3499999 6.35"
   version="1.1"
   id="svg1"
   inkscape:version="1.4 (e7c3feb100, 2024-10-09)"
   sodipodi:docname="solid-heart.svg"
   xml:space="preserve"
   xmlns:inkscape="http://www.inkscape.org/namespaces/inkscape"
   xmlns:sodipodi="http://sodipodi.sourceforge.net/DTD/sodipodi-0.dtd"
   xmlns="http://www.w3.org/2000/svg"
   xmlns:svg="http://www.w3.org/2000/svg"><sodipodi:namedview
     id="namedview1"
     pagecolor="#505050"
     bordercolor="#eeeeee"
     borderopacity="1"
     inkscape:showpageshadow="0"
     inkscape:pageopacity="0"
     inkscape:pagecheckerboard="0"
     inkscape:deskcolor="#505050"
     inkscape:document-units="px"
     showguides="true"
     inkscape:zoom="4.1666667"
     inkscape:cx="26.64"
     inkscape:cy="23.76"
     inkscape:window-width="1920"
     inkscape:window-height="1011"
     inkscape:window-x="0"
     inkscape:window-y="0"
     inkscape:window-maximized="1"
     inkscape:current-layer="layer1" /><defs
     id="defs1" /><g
     inkscape:label="Layer 1"
     inkscape:groupmode="layer"
     id="layer1"><path
       d="m 3.0810995,5.5325117 -0.0019,-7.94e-4 -0.0058,-0.0032 a 4.0341021,4.0341021 0 0 1 -0.101335,-0.05768 6.6622083,6.6622083 0 0 1 -1.122892,-0.838729 C 1.2403665,4.0640477 0.59531247,3.2210857 0.59531247,2.1828605 c 0,-0.7747 0.65193303,-1.38906247 1.43880403,-1.38906247 A 1.4552083,1.4552083 0 0 1 3.1749995,1.336723 1.4552083,1.4552083 0 0 1 4.3161475,0.79379803 c 0.786606,0 1.43854,0.61436247 1.43854,1.38906247 0,1.0384892 -0.645055,1.8814522 -1.253861,2.4489832 a 6.6608854,6.6608854 0 0 1 -1.122891,0.838729 4.0341021,4.0341021 0 0 1 -0.101336,0.05794 l -0.0058,0.0032 -0.0018,0.0011 -7.94e-4,2.65e-4 a 0.19896667,0.19896667 0 0 1 -0.186266,0 l -7.97e-4,-2.62e-4 z"
       id="path1"
       style="stroke-width:0.264583;fill:#f9f9f9" /><rect
       style="fill:none;stroke:none;stroke-width:0.25"
       id="rect1"
       width="6.3499999"
       height="6.3499999"
       x="2.2683716e-08"
       y="2.2683718e-08" /></g></svg>
