<?xml version="1.0" encoding="UTF-8" standalone="no"?>
<!-- Created with Inkscape (http://www.inkscape.org/) -->

<svg
   width="24"
   height="24"
   viewBox="0 0 6.3499999 6.35"
   version="1.1"
   id="svg1"
   inkscape:version="1.4 (e7c3feb100, 2024-10-09)"
   sodipodi:docname="solid-user.svg"
   xmlns:inkscape="http://www.inkscape.org/namespaces/inkscape"
   xmlns:sodipodi="http://sodipodi.sourceforge.net/DTD/sodipodi-0.dtd"
   xmlns="http://www.w3.org/2000/svg"
   xmlns:svg="http://www.w3.org/2000/svg">
  <sodipodi:namedview
     id="namedview1"
     pagecolor="#505050"
     bordercolor="#eeeeee"
     borderopacity="1"
     inkscape:showpageshadow="0"
     inkscape:pageopacity="0"
     inkscape:pagecheckerboard="0"
     inkscape:deskcolor="#505050"
     inkscape:document-units="px"
     showguides="true"
     inkscape:zoom="4.1666667"
     inkscape:cx="26.4"
     inkscape:cy="23.76"
     inkscape:window-width="1920"
     inkscape:window-height="1011"
     inkscape:window-x="0"
     inkscape:window-y="0"
     inkscape:window-maximized="1"
     inkscape:current-layer="layer1" />
  <defs
     id="defs1" />
  <g
     inkscape:label="Layer 1"
     inkscape:groupmode="layer"
     id="layer1">
    <path
       fill-rule="evenodd"
       d="m 1.9843755,1.5874977 a 1.190625,1.190625 0 1 1 2.38125,0 1.190625,1.190625 0 0 1 -2.38125,0 z m -0.99192303,3.731948 a 2.1828125,2.1828125 0 0 1 4.36509503,0 0.1984375,0.1984375 0 0 1 -0.115622,0.183885 4.9432104,4.9432104 0 0 1 -2.066925,0.449792 c -0.73713,0 -1.437482,-0.160867 -2.066925,-0.449792 A 0.1984375,0.1984375 0 0 1 0.99245247,5.3194457 Z"
       clip-rule="evenodd"
       id="path1"
       style="fill:#f9f9f9;stroke-width:0.264583" />
    <rect
       style="fill:none;stroke:none;stroke-width:0.25"
       id="rect1"
       width="6.3499999"
       height="6.3499999"
       x="2.2683714e-08"
       y="2.2683718e-08" />
  </g>
</svg>
