<?xml version="1.0" encoding="UTF-8" standalone="no"?>
<!-- Created with Inkscape (http://www.inkscape.org/) -->

<svg
   width="24"
   height="24"
   viewBox="0 0 6.3499999 6.35"
   version="1.1"
   id="svg1"
   inkscape:version="1.4 (e7c3feb100, 2024-10-09)"
   sodipodi:docname="solid-microphone.svg"
   xmlns:inkscape="http://www.inkscape.org/namespaces/inkscape"
   xmlns:sodipodi="http://sodipodi.sourceforge.net/DTD/sodipodi-0.dtd"
   xmlns="http://www.w3.org/2000/svg"
   xmlns:svg="http://www.w3.org/2000/svg">
  <sodipodi:namedview
     id="namedview1"
     pagecolor="#505050"
     bordercolor="#eeeeee"
     borderopacity="1"
     inkscape:showpageshadow="0"
     inkscape:pageopacity="0"
     inkscape:pagecheckerboard="0"
     inkscape:deskcolor="#505050"
     inkscape:document-units="px"
     showguides="true"
     inkscape:zoom="4.1666667"
     inkscape:cx="26.4"
     inkscape:cy="23.76"
     inkscape:window-width="1920"
     inkscape:window-height="1011"
     inkscape:window-x="0"
     inkscape:window-y="0"
     inkscape:window-maximized="1"
     inkscape:current-layer="layer1" />
  <defs
     id="defs1" />
  <g
     inkscape:label="Layer 1"
     inkscape:groupmode="layer"
     id="layer1">
    <g
       id="g1"
       transform="translate(-13.229167,-2.9104166)"
       style="fill:#f9f9f9">
      <path
         d="m 15.411979,4.1010416 a 0.9921875,0.9921875 0 1 1 1.984375,0 v 2.1828125 a 0.9921875,0.9921875 0 1 1 -1.984375,0 z"
         id="path1"
         style="stroke-width:0.264583;fill:#f9f9f9" />
      <path
         d="m 14.816667,5.6885416 a 0.1984375,0.1984375 0 0 1 0.198437,0.1984375 v 0.396875 a 1.3890625,1.3890625 0 1 0 2.778125,0 v -0.396875 a 0.1984375,0.1984375 0 0 1 0.396875,0 v 0.396875 a 1.7862021,1.7862021 0 0 1 -1.5875,1.7750895 v 0.6061605 h 0.79375 a 0.1984375,0.1984375 0 0 1 0,0.396875 h -1.984375 a 0.1984375,0.1984375 0 0 1 0,-0.396875 h 0.79375 V 8.0589436 a 1.7862021,1.7862021 0 0 1 -1.5875,-1.7750895 v -0.396875 a 0.1984375,0.1984375 0 0 1 0.198438,-0.1984375 z"
         id="path2"
         style="stroke-width:0.264583;fill:#f9f9f9" />
    </g>
    <rect
       style="fill:none;stroke:none;stroke-width:0.25"
       id="rect1"
       width="6.3499999"
       height="6.3499999"
       x="2.2683714e-08"
       y="2.2683718e-08" />
  </g>
</svg>
