<?xml version="1.0" encoding="UTF-8" standalone="no"?>
<!-- Created with Inkscape (http://www.inkscape.org/) -->

<svg
   width="24"
   height="24"
   viewBox="0 0 6.3499999 6.35"
   version="1.1"
   id="svg1"
   inkscape:version="1.4 (e7c3feb100, 2024-10-09)"
   sodipodi:docname="solid-bitcoin.svg"
   xml:space="preserve"
   xmlns:inkscape="http://www.inkscape.org/namespaces/inkscape"
   xmlns:sodipodi="http://sodipodi.sourceforge.net/DTD/sodipodi-0.dtd"
   xmlns="http://www.w3.org/2000/svg"
   xmlns:svg="http://www.w3.org/2000/svg"><sodipodi:namedview
     id="namedview1"
     pagecolor="#505050"
     bordercolor="#eeeeee"
     borderopacity="1"
     inkscape:showpageshadow="0"
     inkscape:pageopacity="0"
     inkscape:pagecheckerboard="0"
     inkscape:deskcolor="#505050"
     inkscape:document-units="px"
     showguides="true"
     inkscape:zoom="4.1666667"
     inkscape:cx="26.64"
     inkscape:cy="23.76"
     inkscape:window-width="1920"
     inkscape:window-height="1011"
     inkscape:window-x="0"
     inkscape:window-y="0"
     inkscape:window-maximized="1"
     inkscape:current-layer="layer1" /><defs
     id="defs1" /><g
     inkscape:label="Layer 1"
     inkscape:groupmode="layer"
     id="layer1"><rect
       style="fill:none;stroke-width:0.25;stroke:none"
       id="rect1"
       width="6.3499999"
       height="6.3499999"
       x="0"
       y="0" /><g
       style="fill:#e8eaed"
       id="g1"
       transform="matrix(0.00661458,0,0,0.00661458,-0.13229003,6.3499984)"><path
         d="m 360,-120 v -80 H 240 v -80 h 80 v -400 h -80 v -80 h 120 v -80 h 80 v 80 h 80 v -80 h 80 v 85 q 52,14 86,56.5 34,42.5 34,98.5 0,29 -10,55.5 -10,26.5 -28,47.5 35,21 56.5,57 21.5,36 21.5,80 0,66 -47,113 -47,47 -113,47 v 80 h -80 v -80 h -80 v 80 z m 40,-400 h 160 q 33,0 56.5,-23.5 Q 640,-567 640,-600 640,-633 616.5,-656.5 593,-680 560,-680 H 400 Z m 0,240 h 200 q 33,0 56.5,-23.5 Q 680,-327 680,-360 680,-393 656.5,-416.5 633,-440 600,-440 H 400 Z"
         id="path1" /></g></g></svg>
