<?xml version="1.0" encoding="UTF-8" standalone="no"?>
<!-- Created with Inkscape (http://www.inkscape.org/) -->

<svg
   width="24"
   height="24"
   viewBox="0 0 6.3499999 6.35"
   version="1.1"
   id="svg1"
   inkscape:version="1.4 (e7c3feb100, 2024-10-09)"
   sodipodi:docname="solid-takeout-dining.svg"
   xml:space="preserve"
   xmlns:inkscape="http://www.inkscape.org/namespaces/inkscape"
   xmlns:sodipodi="http://sodipodi.sourceforge.net/DTD/sodipodi-0.dtd"
   xmlns="http://www.w3.org/2000/svg"
   xmlns:svg="http://www.w3.org/2000/svg"><sodipodi:namedview
     id="namedview1"
     pagecolor="#505050"
     bordercolor="#eeeeee"
     borderopacity="1"
     inkscape:showpageshadow="0"
     inkscape:pageopacity="0"
     inkscape:pagecheckerboard="0"
     inkscape:deskcolor="#505050"
     inkscape:document-units="px"
     showguides="true"
     inkscape:zoom="4.1666667"
     inkscape:cx="26.64"
     inkscape:cy="23.76"
     inkscape:window-width="1920"
     inkscape:window-height="1011"
     inkscape:window-x="0"
     inkscape:window-y="0"
     inkscape:window-maximized="1"
     inkscape:current-layer="layer1" /><defs
     id="defs1" /><g
     inkscape:label="Layer 1"
     inkscape:groupmode="layer"
     id="layer1"><rect
       style="fill:none;stroke-width:0.25;stroke:none"
       id="rect1"
       width="6.3499999"
       height="6.3499999"
       x="0"
       y="0" /><g
       style="fill:#e8eaed"
       id="g1"
       transform="matrix(0.00661458,0,0,0.00661458,1.575e-6,6.48229)"><path
         d="m 312,-240 h 338 l 19,-280 H 292 Z m -26,-360 h 389 l 3,-50 -112,-110 H 394 l -112,110 z m -76,68 -130,-130 56,-56 64,64 -2,-24 162,-162 h 240 l 162,162 -2,24 64,-64 56,56 -130,130 z m 28,372 -28,-372 h 540 l -28,372 z m 242,-440 z m 1,80 z"
         id="path1" /></g></g></svg>
