<?xml version="1.0" encoding="UTF-8" standalone="no"?>
<!-- Created with Inkscape (http://www.inkscape.org/) -->

<svg
   width="24"
   height="24"
   viewBox="0 0 6.3499999 6.35"
   version="1.1"
   id="svg1"
   inkscape:version="1.4 (e7c3feb100, 2024-10-09)"
   sodipodi:docname="solid-bike-lane.svg"
   xml:space="preserve"
   xmlns:inkscape="http://www.inkscape.org/namespaces/inkscape"
   xmlns:sodipodi="http://sodipodi.sourceforge.net/DTD/sodipodi-0.dtd"
   xmlns="http://www.w3.org/2000/svg"
   xmlns:svg="http://www.w3.org/2000/svg"><sodipodi:namedview
     id="namedview1"
     pagecolor="#505050"
     bordercolor="#eeeeee"
     borderopacity="1"
     inkscape:showpageshadow="0"
     inkscape:pageopacity="0"
     inkscape:pagecheckerboard="0"
     inkscape:deskcolor="#505050"
     inkscape:document-units="px"
     showguides="true"
     inkscape:zoom="4.1666667"
     inkscape:cx="26.64"
     inkscape:cy="23.76"
     inkscape:window-width="1920"
     inkscape:window-height="1011"
     inkscape:window-x="0"
     inkscape:window-y="0"
     inkscape:window-maximized="1"
     inkscape:current-layer="layer1" /><defs
     id="defs1" /><g
     inkscape:label="Layer 1"
     inkscape:groupmode="layer"
     id="layer1"><rect
       style="fill:none;stroke-width:0.25;stroke:none"
       id="rect1"
       width="6.3499999"
       height="6.3499999"
       x="0"
       y="0" /><g
       style="fill:#e8eaed"
       id="g1"
       transform="matrix(0.00661458,0,0,0.00661458,0.13229317,6.48229)"><path
         d="m 720,-160 q 33,0 56.5,-23.5 Q 800,-207 800,-240 800,-273 776.5,-296.5 753,-320 720,-320 q -33,0 -56.5,23.5 -23.5,23.5 -23.5,56.5 0,33 23.5,56.5 23.5,23.5 56.5,23.5 z m 0,80 q -66,0 -113,-47 -47,-47 -47,-113 0,-66 47,-113 47,-47 113,-47 66,0 113,47 47,47 47,113 0,66 -47,113 -47,47 -113,47 z M 600,-620 q -29,0 -49.5,-20.5 Q 530,-661 530,-690 q 0,-29 20.5,-49.5 20.5,-20.5 49.5,-20.5 29,0 49.5,20.5 20.5,20.5 20.5,49.5 0,29 -20.5,49.5 Q 629,-620 600,-620 Z m -160,420 v -147 l -93,-77 q -26,-23 -27.5,-58 -1.5,-35 24.5,-59 l 80,-77 q 23,-23 56,-22.5 33,0.5 56,23.5 l 63,56 q 26,20 57,30.5 31,10.5 64,10.5 v 80 q -60,0 -113,-24 -53,-24 -93,-67 l -74,71 80,80 v 180 z m -200,40 q 33,0 56.5,-23.5 Q 320,-207 320,-240 320,-273 296.5,-296.5 273,-320 240,-320 q -33,0 -56.5,23.5 -23.5,23.5 -23.5,56.5 0,33 23.5,56.5 23.5,23.5 56.5,23.5 z m -69,-470 138,-138 -41,-42 -96,96 -40,-40 -42,43 z m 69,550 q -66,0 -113,-47 -47,-47 -47,-113 0,-66 47,-113 47,-47 113,-47 66,0 113,47 47,47 47,113 0,66 -47,113 -47,47 -113,47 z M 200,-520 Q 131,-537 85.5,-599.5 40,-662 40,-738 v -120 l 160,-62 160,62 v 120 q 0,76 -45.5,138.5 Q 269,-537 200,-520 Z"
         id="path1" /></g></g></svg>
