<?xml version="1.0" encoding="UTF-8" standalone="no"?>
<!-- Created with Inkscape (http://www.inkscape.org/) -->

<svg
   width="24"
   height="24"
   viewBox="0 0 6.3499999 6.35"
   version="1.1"
   id="svg1"
   inkscape:version="1.4 (e7c3feb100, 2024-10-09)"
   sodipodi:docname="solid-wifi.svg"
   xml:space="preserve"
   xmlns:inkscape="http://www.inkscape.org/namespaces/inkscape"
   xmlns:sodipodi="http://sodipodi.sourceforge.net/DTD/sodipodi-0.dtd"
   xmlns="http://www.w3.org/2000/svg"
   xmlns:svg="http://www.w3.org/2000/svg"><sodipodi:namedview
     id="namedview1"
     pagecolor="#505050"
     bordercolor="#eeeeee"
     borderopacity="1"
     inkscape:showpageshadow="0"
     inkscape:pageopacity="0"
     inkscape:pagecheckerboard="0"
     inkscape:deskcolor="#505050"
     inkscape:document-units="px"
     showguides="true"
     inkscape:zoom="4.1666667"
     inkscape:cx="26.64"
     inkscape:cy="23.76"
     inkscape:window-width="1920"
     inkscape:window-height="1011"
     inkscape:window-x="0"
     inkscape:window-y="0"
     inkscape:window-maximized="1"
     inkscape:current-layer="layer1" /><defs
     id="defs1" /><g
     inkscape:label="Layer 1"
     inkscape:groupmode="layer"
     id="layer1"><rect
       style="fill:none;stroke-width:0.25;stroke:none"
       id="rect1"
       width="6.3499999"
       height="6.3499999"
       x="0"
       y="0" /><path
       fill-rule="evenodd"
       d="m 0.3684983,2.2537085 c 1.5499292,-1.54966401 4.0629417,-1.54966401 5.6126063,0 a 0.1984375,0.1984375 0 0 1 0,0.280723 l -0.1402292,0.140229 a 0.1984375,0.1984375 0 0 1 -0.2804583,0 c -1.317625,-1.31736 -3.4536063,-1.31736 -4.7709667,0 a 0.1984375,0.1984375 0 0 1 -0.2804583,0 L 0.3687629,2.5344315 a 0.1984375,0.1984375 0 0 1 0,-0.280458 z m 0.8419042,0.841904 c 1.0847917,-1.084791 2.8440062,-1.084791 3.9290625,0 a 0.1984375,0.1984375 0 0 1 0,0.280723 l -0.1402292,0.14023 a 0.1984375,0.1984375 0 0 1 -0.2809875,0 2.1828125,2.1828125 0 0 0 -3.0868937,0 0.1984375,0.1984375 0 0 1 -0.2804583,0 l -0.1402292,-0.14023 a 0.1984375,0.1984375 0 0 1 0,-0.280458 z m 0.847725,0.841905 a 1.5875,1.5875 0 0 1 2.2452541,0 0.1984375,0.1984375 0 0 1 0,0.280723 l -0.1402291,0.140229 a 0.1984375,0.1984375 0 0 1 -0.2807229,0 0.99218749,0.99218749 0 0 0 -1.40335,0 0.1984375,0.1984375 0 0 1 -0.2804584,0 L 2.0583921,4.2182405 a 0.1984375,0.1984375 0 0 1 0,-0.280459 z m 0.8419042,0.841904 a 0.396875,0.396875 0 0 1 0.5614458,0 0.1984375,0.1984375 0 0 1 0,0.280723 l -0.1402292,0.140229 a 0.1984375,0.1984375 0 0 1 -0.2807229,0 L 2.9002962,5.0601445 a 0.1984375,0.1984375 0 0 1 0,-0.280459 z"
       clip-rule="evenodd"
       id="path1"
       style="stroke-width:0.264583;fill:#f9f9f9" /></g></svg>
