<?xml version="1.0" encoding="UTF-8" standalone="no"?>
<!-- Created with Inkscape (http://www.inkscape.org/) -->

<svg
   width="24"
   height="24"
   viewBox="0 0 6.3499999 6.35"
   version="1.1"
   id="svg1"
   inkscape:version="1.4 (e7c3feb100, 2024-10-09)"
   sodipodi:docname="solid-skillet.svg"
   xml:space="preserve"
   xmlns:inkscape="http://www.inkscape.org/namespaces/inkscape"
   xmlns:sodipodi="http://sodipodi.sourceforge.net/DTD/sodipodi-0.dtd"
   xmlns="http://www.w3.org/2000/svg"
   xmlns:svg="http://www.w3.org/2000/svg"><sodipodi:namedview
     id="namedview1"
     pagecolor="#505050"
     bordercolor="#eeeeee"
     borderopacity="1"
     inkscape:showpageshadow="0"
     inkscape:pageopacity="0"
     inkscape:pagecheckerboard="0"
     inkscape:deskcolor="#505050"
     inkscape:document-units="px"
     showguides="true"
     inkscape:zoom="4.1666667"
     inkscape:cx="26.64"
     inkscape:cy="23.76"
     inkscape:window-width="1920"
     inkscape:window-height="1011"
     inkscape:window-x="0"
     inkscape:window-y="0"
     inkscape:window-maximized="1"
     inkscape:current-layer="layer1" /><defs
     id="defs1" /><g
     inkscape:label="Layer 1"
     inkscape:groupmode="layer"
     id="layer1"><rect
       style="fill:none;stroke-width:0.25;stroke:none"
       id="rect1"
       width="6.3499999"
       height="6.3499999"
       x="0"
       y="0" /><g
       style="fill:#e8eaed"
       id="g1"
       transform="matrix(0.00661458,0,0,0.00661458,-0.17197751,6.48229)"><path
         d="m 177,-560 q 14,-36 4.5,-64 -9.5,-28 -32.5,-56 -33,-40 -43.5,-75.5 Q 95,-791 102,-840 h 78 q -8,38 -2.5,62 5.5,24 28.5,52 38,46 48.5,81.5 10.5,35.5 0.5,84.5 z m 160,0 q 14,-36 5,-64 -9,-28 -32,-56 -33,-40 -44,-75.5 -11,-35.5 -4,-84.5 h 78 q -8,38 -2.5,62 5.5,24 28.5,52 38,46 48.5,81.5 10.5,35.5 0.5,84.5 z m 160,0 q 14,-36 5,-64 -9,-28 -32,-56 -33,-40 -44,-75.5 -11,-35.5 -4,-84.5 h 78 q -8,38 -2.5,62 5.5,24 28.5,52 38,46 48.5,81.5 10.5,35.5 0.5,84.5 z m -297,400 q -50,0 -85,-35 -35,-35 -35,-85 v -200 h 561 q 5,-34 27,-59.5 22,-25.5 54,-36.5 l 185,-62 25,76 -185,62 q -12,4 -19.5,14.5 -7.5,10.5 -7.5,23.5 v 182 q 0,50 -35,85 -35,35 -85,35 z m 0,-80 h 400 q 17,0 28.5,-11.5 Q 640,-263 640,-280 V -400 H 160 v 120 q 0,17 11.5,28.5 11.5,11.5 28.5,11.5 z m 200,-80 z"
         id="path1" /></g></g></svg>
