<?xml version="1.0" encoding="UTF-8" standalone="no"?>
<!-- Created with Inkscape (http://www.inkscape.org/) -->

<svg
   width="24"
   height="24"
   viewBox="0 0 6.3499999 6.35"
   version="1.1"
   id="svg1"
   inkscape:version="1.4 (e7c3feb100, 2024-10-09)"
   sodipodi:docname="solid-home.svg"
   xmlns:inkscape="http://www.inkscape.org/namespaces/inkscape"
   xmlns:sodipodi="http://sodipodi.sourceforge.net/DTD/sodipodi-0.dtd"
   xmlns="http://www.w3.org/2000/svg"
   xmlns:svg="http://www.w3.org/2000/svg">
  <sodipodi:namedview
     id="namedview1"
     pagecolor="#505050"
     bordercolor="#eeeeee"
     borderopacity="1"
     inkscape:showpageshadow="0"
     inkscape:pageopacity="0"
     inkscape:pagecheckerboard="0"
     inkscape:deskcolor="#505050"
     inkscape:document-units="px"
     showguides="true"
     inkscape:zoom="4.1666667"
     inkscape:cx="26.64"
     inkscape:cy="23.76"
     inkscape:window-width="1920"
     inkscape:window-height="1011"
     inkscape:window-x="0"
     inkscape:window-y="0"
     inkscape:window-maximized="1"
     inkscape:current-layer="layer1" />
  <defs
     id="defs1" />
  <g
     inkscape:label="Layer 1"
     inkscape:groupmode="layer"
     id="layer1">
    <g
       id="g1"
       style="fill:#f9f9f9"
       transform="translate(-8.2020177,-8.1850132)">
      <path
         d="m 11.236854,9.2183479 a 0.1984375,0.1984375 0 0 1 0.280458,0 l 2.29923,2.2992291 A 0.1984375,0.1984375 0 1 0 14.097,11.236854 L 11.798035,8.9376249 a 0.5953125,0.5953125 0 0 0 -0.841904,0 L 8.656902,11.236854 a 0.1984375,0.1984375 0 1 0 0.2807229,0.280458 z"
         id="path1"
         style="fill:#f9f9f9;stroke-width:0.264583" />
      <path
         d="m 11.377083,9.6393 2.158736,2.158735 c 0.0079,0.0079 0.01587,0.01535 0.02408,0.02275 v 1.639888 c 0,0.273844 -0.22225,0.496094 -0.496094,0.496094 h -0.892969 a 0.1984375,0.1984375 0 0 1 -0.198437,-0.198438 v -1.190625 a 0.1984375,0.1984375 0 0 0 -0.198438,-0.198437 h -0.79375 a 0.1984375,0.1984375 0 0 0 -0.198437,0.198437 v 1.190625 a 0.1984375,0.1984375 0 0 1 -0.198438,0.198438 H 9.6903645 a 0.49609375,0.49609375 0 0 1 -0.4960937,-0.49609 v -1.639888 a 0.60589583,0.60589583 0 0 0 0.024077,-0.02275 z"
         id="path2"
         style="fill:#f9f9f9;stroke-width:0.264583" />
    </g>
    <rect
       style="fill:none;stroke:none;stroke-width:0.25"
       id="rect1"
       width="6.3499999"
       height="6.3499999"
       x="2.2683716e-08"
       y="2.2683714e-08" />
  </g>
</svg>
