<?xml version="1.0" encoding="UTF-8" standalone="no"?>
<!-- Created with Inkscape (http://www.inkscape.org/) -->

<svg
   width="24"
   height="24"
   viewBox="0 0 6.3499999 6.35"
   version="1.1"
   id="svg1"
   inkscape:version="1.4 (e7c3feb100, 2024-10-09)"
   sodipodi:docname="solid-printer.svg"
   xml:space="preserve"
   xmlns:inkscape="http://www.inkscape.org/namespaces/inkscape"
   xmlns:sodipodi="http://sodipodi.sourceforge.net/DTD/sodipodi-0.dtd"
   xmlns="http://www.w3.org/2000/svg"
   xmlns:svg="http://www.w3.org/2000/svg"><sodipodi:namedview
     id="namedview1"
     pagecolor="#505050"
     bordercolor="#eeeeee"
     borderopacity="1"
     inkscape:showpageshadow="0"
     inkscape:pageopacity="0"
     inkscape:pagecheckerboard="0"
     inkscape:deskcolor="#505050"
     inkscape:document-units="px"
     showguides="true"
     inkscape:zoom="4.1666667"
     inkscape:cx="26.64"
     inkscape:cy="23.76"
     inkscape:window-width="1920"
     inkscape:window-height="1011"
     inkscape:window-x="0"
     inkscape:window-y="0"
     inkscape:window-maximized="1"
     inkscape:current-layer="layer1" /><defs
     id="defs1" /><g
     inkscape:label="Layer 1"
     inkscape:groupmode="layer"
     id="layer1"><rect
       style="fill:none;stroke-width:0.25;stroke:none"
       id="rect1"
       width="6.3499999"
       height="6.3499999"
       x="0"
       y="0" /><path
       fill-rule="evenodd"
       d="m 2.083591,0.39687502 c -0.274109,0 -0.496094,0.22225001 -0.496094,0.4960937 V 1.6840729 C 1.474785,1.6980958 1.362337,1.7131771 1.250418,1.7301104 0.86571397,1.7877896 0.59530997,2.1224875 0.59530997,2.5019 V 4.1671874 A 0.79374999,0.79374999 0 0 0 1.38906,4.9609374 H 1.4605 L 1.41949,5.4120519 a 0.49609375,0.49609375 0 0 0 0.493977,0.541073 H 4.436533 A 0.49609375,0.49609375 0 0 0 4.93051,5.4120519 L 4.8895,4.9609374 h 0.07144 a 0.79374999,0.79374999 0 0 0 0.79375,-0.79375 V 2.5019 c 0,-0.3794125 -0.270404,-0.714375 -0.655108,-0.7717896 A 12.889442,12.889442 0 0 0 4.762502,1.6843375 V 0.89296872 c 0,-0.2741083 -0.22225,-0.4960937 -0.496094,-0.4960937 z M 4.365622,1.6417396 V 0.89296872 a 0.09921875,0.09921875 0 0 0 -0.09922,-0.099219 H 2.08359 a 0.09921875,0.09921875 0 0 0 -0.09922,0.099219 V 1.6417396 a 13.057981,13.057981 0 0 1 2.38125,0 z m -0.05741,2.1867812 c 0.0471,0.00476 0.08387,0.042333 0.08811,0.089165 L 4.535493,5.4480359 A 0.09921875,0.09921875 0 0 1 4.436543,5.5562501 H 1.913464 A 0.09921875,0.09921875 0 0 1 1.814514,5.4480354 l 0.13917,-1.53035 a 0.09868958,0.09868958 0 0 1 0.08811,-0.089165 11.043973,11.043973 0 0 1 2.266421,5e-7 z M 4.564065,2.778125 A 0.1984375,0.1984375 0 0 1 4.762502,2.5796875 h 0.0021 A 0.1984375,0.1984375 0 0 1 4.963036,2.778125 v 0.00212 A 0.1984375,0.1984375 0 0 1 4.764614,2.9786791 h -0.0021 A 0.1984375,0.1984375 0 0 1 4.564077,2.7802416 Z M 3.968752,2.5796875 A 0.1984375,0.1984375 0 0 0 3.770315,2.778125 v 0.00212 c 0,0.1095375 0.0889,0.1984375 0.198437,0.1984375 h 0.0021 A 0.1984375,0.1984375 0 0 0 4.169286,2.7802416 v -0.00212 A 0.1984375,0.1984375 0 0 0 3.970864,2.5796875 Z"
       clip-rule="evenodd"
       id="path1"
       style="stroke-width:0.264583;fill:#ffffff" /></g></svg>
