<?xml version="1.0" encoding="UTF-8" standalone="no"?>
<!-- Created with Inkscape (http://www.inkscape.org/) -->

<svg
   width="24"
   height="24"
   viewBox="0 0 6.3500126 6.3500127"
   version="1.1"
   id="svg1"
   inkscape:version="1.3.2 (091e20ef0f, 2023-11-25)"
   sodipodi:docname="waves.svg"
   inkscape:export-filename="credit-card-waves.svg"
   inkscape:export-xdpi="96"
   inkscape:export-ydpi="96"
   xmlns:inkscape="http://www.inkscape.org/namespaces/inkscape"
   xmlns:sodipodi="http://sodipodi.sourceforge.net/DTD/sodipodi-0.dtd"
   xmlns:xlink="http://www.w3.org/1999/xlink"
   xmlns="http://www.w3.org/2000/svg"
   xmlns:svg="http://www.w3.org/2000/svg">
  <sodipodi:namedview
     id="namedview1"
     pagecolor="#505050"
     bordercolor="#eeeeee"
     borderopacity="1"
     inkscape:showpageshadow="0"
     inkscape:pageopacity="0"
     inkscape:pagecheckerboard="true"
     inkscape:deskcolor="#d1d1d1"
     inkscape:document-units="px"
     inkscape:clip-to-page="false"
     inkscape:zoom="23.71754"
     inkscape:cx="11.995342"
     inkscape:cy="11.995342"
     inkscape:window-width="1920"
     inkscape:window-height="1011"
     inkscape:window-x="0"
     inkscape:window-y="32"
     inkscape:window-maximized="1"
     inkscape:current-layer="layer1"
     inkscape:export-bgcolor="#00000000" />
  <defs
     id="defs1">
    <color-profile
       name="Compatible-with-Adobe-RGB-1998"
       xlink:href="file:///app/share/color/icc/colord/AdobeRGB1998.icc"
       id="color-profile1" />
    <color-profile
       name="Blue"
       xlink:href="file:///app/share/color/icc/colord/Bluish.icc"
       id="color-profile2" />
  </defs>
  <g
     inkscape:label="Layer 1"
     inkscape:groupmode="layer"
     id="layer1">
    <g
       id="g7"
       transform="matrix(1.8,0,0,1.8,-5.7657897,-2.5393446)">
      <path
         id="path1"
         style="fill:none;stroke:#f9f9f9;stroke-width:0.264584;stroke-dasharray:none;stroke-opacity:1"
         d="m 3.7257084,2.7278443 a 0.70938468,0.70938468 0 0 1 0.1586827,0.4471621 v 0 A 0.70938468,0.70938468 0 0 1 3.7272008,3.6203242" />
      <path
         id="path1-5"
         style="fill:none;stroke:#f9f9f9;stroke-width:0.264584;stroke-dasharray:none;stroke-opacity:1"
         d="m 4.2566772,2.4134669 a 1.3228583,1.3228583 0 0 1 0.2411875,0.7615395 v 0 A 1.3228583,1.3228583 0 0 1 4.2575554,3.9352969" />
      <path
         id="circle1"
         style="fill:none;stroke:#f9f9f9;stroke-width:0.264584;stroke-dasharray:none;stroke-opacity:1"
         d="M 4.7592755,2.1155672 A 1.9058646,1.9058646 0 0 1 5.080871,3.1750064 v 0 A 1.9058646,1.9058646 0 0 1 4.7601342,4.2331602" />
      <path
         id="circle2"
         style="fill:none;stroke:#f9f9f9;stroke-width:0.264584;stroke-dasharray:none;stroke-opacity:1"
         d="m 5.2303513,1.8371257 a 2.4524207,2.4524207 0 0 1 0.3970758,1.3378807 v 0 A 2.4524207,2.4524207 0 0 1 5.2310895,4.5117523" />
      <path
         id="circle3"
         style="fill:none;stroke:#f9f9f9;stroke-width:0.264584;stroke-dasharray:none;stroke-opacity:1"
         d="m 5.7120652,1.5666497 a 3.0039105,3.0039105 0 0 1 0.4668517,1.6083567 v 0 A 3.0039105,3.0039105 0 0 1 5.7125107,4.7826601" />
    </g>
  </g>
</svg>
